<svg width="120" height="34" viewBox="0 0 120 34"  xmlns="http://www.w3.org/2000/svg">
<path d="M21.72 24.9899C22.095 26.3949 22.695 26.9399 23.755 26.9399C24.855 26.9399 25.43 26.2799 25.43 24.9899V1.01989H32.325V24.9899C32.325 28.3649 31.885 29.8299 30.175 31.5399C28.94 32.7799 26.66 33.7349 23.785 33.7349C21.465 33.7349 19.24 32.9649 17.825 31.5449C16.58 30.2949 15.895 29.0199 14.83 24.9899L10.6 9.0099C10.23 7.6049 9.63 7.05989 8.57 7.05989C7.47 7.05989 6.89 7.7199 6.89 9.0099V32.9799H0V9.0099C0 5.6349 0.44 4.16989 2.15 2.45989C3.385 1.21989 5.665 0.264893 8.54 0.264893C10.86 0.264893 13.085 1.03489 14.5 2.45489C15.745 3.70489 16.425 4.9799 17.495 9.0099L21.72 24.9899ZM112.875 32.9799L104.92 8.07989C104.86 7.84399 104.758 7.62058 104.62 7.41989C104.508 7.28367 104.365 7.17563 104.204 7.10444C104.042 7.03324 103.866 7.00086 103.69 7.00989C103.515 7.00165 103.34 7.03441 103.179 7.10558C103.018 7.17675 102.877 7.28437 102.765 7.41989C102.627 7.62053 102.525 7.84396 102.465 8.07989L94.51 32.9799H87.385L96.08 5.77989C96.53 4.36489 97.18 3.15989 98 2.35989C99.41 0.984891 101.07 0.264893 103.69 0.264893C106.315 0.264893 107.975 0.984893 109.385 2.36489C110.205 3.16489 110.855 4.36489 111.305 5.77989L120 32.9799H112.875ZM77.655 32.9799C82.17 32.9799 84.375 32.0199 86.115 30.2899C88.04 28.3749 88.96 26.2799 88.96 23.1549C88.96 20.3899 87.95 17.8349 86.41 16.3049C84.395 14.3049 81.895 13.6699 77.815 13.6699H72.105C69.925 13.6699 69.055 13.4049 68.365 12.7299C67.895 12.2649 67.67 11.5799 67.67 10.7649C67.67 9.9249 67.87 9.0949 68.45 8.5249C68.965 8.0249 69.665 7.78989 71.005 7.78989H87.51V1.01989H72.265C67.75 1.01989 65.55 1.97989 63.81 3.70989C61.885 5.62489 60.96 7.71989 60.96 10.8449C60.96 13.6099 61.975 16.1649 63.51 17.6949C65.53 19.6949 68.03 20.3299 72.11 20.3299H77.815C80 20.3299 80.865 20.5949 81.555 21.2699C82.03 21.7349 82.255 22.4199 82.255 23.2349C82.255 24.0799 82.05 24.9099 81.47 25.4749C80.96 25.9749 80.26 26.2099 78.92 26.2099H61.895L55.365 5.77989C54.915 4.36489 54.265 3.15989 53.445 2.35989C52.035 0.984891 50.37 0.264893 47.75 0.264893C45.13 0.264893 43.465 0.984893 42.06 2.36489C41.235 3.16489 40.59 4.36489 40.135 5.77989L31.445 32.9799H38.565L46.525 8.07989C46.5855 7.84399 46.687 7.62058 46.825 7.41989C46.9367 7.28437 47.0785 7.17675 47.239 7.10558C47.3996 7.03441 47.5746 7.00165 47.75 7.00989C48.16 7.00989 48.46 7.14989 48.68 7.41989C48.8181 7.62048 48.9197 7.84392 48.98 8.07989L56.935 32.9799H77.655Z" fill="currentColor"/>
</svg>
