<svg width="65" height="65" viewBox="0 0 65 65" fill="none" xmlns="http://www.w3.org/2000/svg">
<g clip-path="url(#clip0_601_39)">
<path d="M24.5 1.61197C24.8905 2.08642 25.1297 2.66706 25.1867 3.27886C25.2437 3.89067 25.116 4.50552 24.82 5.04397C22.5074 9.28987 21.2997 14.0491 21.308 18.884C21.308 34.968 34.42 47.992 50.58 47.992C52.688 47.992 54.74 47.772 56.712 47.352C57.3165 47.2211 57.9462 47.2711 58.5224 47.4959C59.0986 47.7207 59.5958 48.1103 59.952 48.616C60.328 49.1418 60.5196 49.7771 60.4972 50.423C60.4748 51.069 60.2395 51.6895 59.828 52.188C56.6907 56.0417 52.733 59.1468 48.2433 61.2767C43.7537 63.4067 38.8453 64.5079 33.876 64.5C15.436 64.5 0.5 49.644 0.5 31.34C0.5 17.564 8.956 5.74797 20.996 0.739973C21.5958 0.486501 22.2616 0.434477 22.8934 0.591716C23.5252 0.748955 24.089 1.10697 24.5 1.61197Z" fill="#B3B3B3"/>
<path d="M43.676 13.092C43.7334 12.9188 43.8439 12.768 43.9918 12.6612C44.1397 12.5543 44.3175 12.4968 44.5 12.4968C44.6825 12.4968 44.8603 12.5543 45.0082 12.6612C45.1562 12.768 45.2666 12.9188 45.324 13.092L46.872 17.74C47.564 19.812 49.188 21.436 51.26 22.128L55.908 23.676C56.0812 23.7334 56.232 23.8438 56.3388 23.9918C56.4456 24.1397 56.5032 24.3175 56.5032 24.5C56.5032 24.6825 56.4456 24.8603 56.3388 25.0082C56.232 25.1561 56.0812 25.2666 55.908 25.324L51.26 26.872C50.2381 27.2125 49.3095 27.7862 48.5479 28.5479C47.7863 29.3095 47.2125 30.2381 46.872 31.26L45.324 35.908C45.2666 36.0812 45.1562 36.232 45.0082 36.3388C44.8603 36.4456 44.6825 36.5031 44.5 36.5031C44.3175 36.5031 44.1397 36.4456 43.9918 36.3388C43.8439 36.232 43.7334 36.0812 43.676 35.908L42.128 31.26C41.7875 30.2381 41.2137 29.3095 40.4521 28.5479C39.6905 27.7862 38.7619 27.2125 37.74 26.872L33.092 25.324C32.9188 25.2666 32.768 25.1561 32.6612 25.0082C32.5544 24.8603 32.4969 24.6825 32.4969 24.5C32.4969 24.3175 32.5544 24.1397 32.6612 23.9918C32.768 23.8438 32.9188 23.7334 33.092 23.676L37.74 22.128C38.7619 21.7875 39.6905 21.2137 40.4521 20.4521C41.2137 19.6905 41.7875 18.7619 42.128 17.74L43.676 13.092ZM55.952 0.895992C55.9915 0.782097 56.0655 0.683336 56.1637 0.613438C56.2619 0.543541 56.3795 0.505981 56.5 0.505981C56.6206 0.505981 56.7381 0.543541 56.8363 0.613438C56.9345 0.683336 57.0085 0.782097 57.048 0.895992L58.08 3.99199C58.54 5.37599 59.624 6.45999 61.008 6.91999L64.104 7.95199C64.2179 7.99148 64.3167 8.06547 64.3866 8.16368C64.4565 8.2619 64.494 8.37945 64.494 8.49999C64.494 8.62054 64.4565 8.73809 64.3866 8.8363C64.3167 8.93451 64.2179 9.00851 64.104 9.04799L61.008 10.08C60.326 10.3069 59.7062 10.6897 59.1979 11.1979C58.6897 11.7062 58.3069 12.3259 58.08 13.008L57.048 16.104C57.0085 16.2179 56.9345 16.3166 56.8363 16.3865C56.7381 16.4564 56.6206 16.494 56.5 16.494C56.3795 16.494 56.2619 16.4564 56.1637 16.3865C56.0655 16.3166 55.9915 16.2179 55.952 16.104L54.92 13.008C54.6931 12.3259 54.3103 11.7062 53.8021 11.1979C53.2938 10.6897 52.6741 10.3069 51.992 10.08L48.896 9.04799C48.7821 9.00851 48.6833 8.93451 48.6135 8.8363C48.5436 8.73809 48.506 8.62054 48.506 8.49999C48.506 8.37945 48.5436 8.2619 48.6135 8.16368C48.6833 8.06547 48.7821 7.99148 48.896 7.95199L51.992 6.91999C53.376 6.45999 54.46 5.37599 54.92 3.99199L55.952 0.899992V0.895992Z" fill="#004382"/>
</g>
<defs>
<clipPath id="clip0_601_39">
<rect width="64" height="64" fill="white" transform="translate(0.5 0.5)"/>
</clipPath>
</defs>
</svg>
