<svg width="65" height="65" viewBox="0 0 65 65" fill="none" xmlns="http://www.w3.org/2000/svg">
<g clip-path="url(#clip0_601_50)">
<path d="M48.9 0.5H36.1V13.4888C40.6803 13.9922 45.0713 15.5939 48.9 18.1576V0.5ZM29.7 0.5H16.9V18.1576C20.7288 15.5939 25.1198 13.9922 29.7 13.4888V0.5Z" fill="#004382"/>
<path fill-rule="evenodd" clip-rule="evenodd" d="M32.9 64.5C38.8408 64.5 44.5384 62.14 48.7392 57.9391C52.94 53.7383 55.3 48.0408 55.3 42.1C55.3 36.1591 52.94 30.4616 48.7392 26.2608C44.5384 22.0599 38.8408 19.7 32.9 19.7C26.9592 19.7 21.2616 22.0599 17.0608 26.2608C12.86 30.4616 10.5 36.1591 10.5 42.1C10.5 48.0408 12.86 53.7383 17.0608 57.9391C21.2616 62.14 26.9592 64.5 32.9 64.5ZM28.98 37.2391L32.9 29.2999L36.82 37.2391L45.5816 38.5095L39.2424 44.6919L40.74 53.4183L32.9 49.2999L25.0632 53.4183L26.5608 44.6919L20.2216 38.5095L28.98 37.2391Z" fill="#B3B3B3"/>
</g>
<defs>
<clipPath id="clip0_601_50">
<rect width="64" height="64" fill="white" transform="translate(0.5 0.5)"/>
</clipPath>
</defs>
</svg>
