<svg width="65" height="65" viewBox="0 0 65 65" fill="none" xmlns="http://www.w3.org/2000/svg">
<g clip-path="url(#clip0_601_33)">
<path d="M10.9 19.7C13.52 19.7 15.84 20.96 17.3 22.9H46.1C53.03 22.9 59.6 25.17 64.02 31.06C64.66 31.91 64.66 33.09 64.02 33.94C59.6 39.83 53.03 42.1 46.1 42.1H17.3C15.84 44.04 13.52 45.3 10.9 45.3H10.1V54.9H8.5C5.849 54.9 3.7 52.75 3.7 50.1V45.3H4.5C2.291 45.3 0.5 43.51 0.5 41.3V23.7C0.5 21.49 2.289 19.7 4.496 19.7H3.7V14.9C3.7 12.249 5.849 10.1 8.5 10.1H10.1V19.7H10.9ZM48.14 27.7C47.81 27.7 47.7 27.81 47.7 28.14V36.86C47.7 37.1 47.81 37.3 48.14 37.3C50.11 37.3 51.7 35.71 51.7 33.74V31.26C51.7 29.29 50.11 27.7 48.14 27.7Z" fill="#004382"/>
<path d="M13.3 54.9H13.41C17.56 54.9 21.54 53.71 25.02 51.71L35.7 45.3H13.3V54.9Z" fill="#B3B3B3"/>
<path d="M13.3 19.7H35.7L25.02 13.292C21.54 11.203 17.56 10.1 13.41 10.1H13.3V19.7Z" fill="#B3B3B3"/>
</g>
<defs>
<clipPath id="clip0_601_33">
<rect width="64" height="64" fill="white" transform="translate(0.5 0.5)"/>
</clipPath>
</defs>
</svg>
