<svg width="65" height="65" viewBox="0 0 65 65" fill="none" xmlns="http://www.w3.org/2000/svg">
<path d="M13.945 31.75C13.6799 31.2908 13.2432 30.9556 12.731 30.8183C12.2189 30.6809 11.6731 30.7526 11.2138 31.0175L5 34.6012C4.41831 34.9346 3.91019 35.3824 3.5063 35.9176C3.1024 36.4527 2.81112 37.0642 2.65 37.715C2.33998 39.0055 2.54393 40.3659 3.21875 41.5087L3.76375 42.4512C4.42722 43.5985 5.51903 44.4354 6.79926 44.7781C8.07949 45.1208 9.44339 44.9412 10.5913 44.2787L16.8 40.7C17.0277 40.5688 17.2272 40.3941 17.3873 40.1857C17.5474 39.9774 17.6649 39.7395 17.733 39.4858C17.8012 39.232 17.8187 38.9673 17.7845 38.7068C17.7503 38.4463 17.6651 38.1951 17.5338 37.9675L13.945 31.75Z" fill="#B3B3B3"/>
<path d="M48.355 55.6L36.59 32.25C36.5614 32.193 36.5557 32.1271 36.574 32.066C36.5924 32.0049 36.6334 31.9531 36.6887 31.9213L37.7262 31.3225C37.9538 31.1912 38.1532 31.0164 38.3132 30.808C38.4732 30.5996 38.5905 30.3618 38.6586 30.108C38.7266 29.8543 38.7439 29.5896 38.7097 29.3291C38.6754 29.0687 38.5901 28.8175 38.4587 28.59L32.5175 18.2988C32.3863 18.0711 32.2115 17.8715 32.0032 17.7114C31.7949 17.5513 31.557 17.4339 31.3033 17.3657C31.0495 17.2976 30.7848 17.2801 30.5243 17.3143C30.2638 17.3485 30.0126 17.4337 29.785 17.565L18.9875 23.79C18.4175 24.1166 17.9179 24.553 17.5178 25.0739C17.1176 25.5949 16.8248 26.1901 16.6562 26.825C16.5416 27.2215 16.4839 27.6323 16.485 28.045C16.4925 28.995 17.635 30.8825 18.75 32.83C19.9487 34.9238 21.155 37.065 22.0425 37.5988C22.6075 37.9388 23.605 38.2113 24.4437 38.2113H24.5487L14.6337 59.6613C14.5233 59.8997 14.4609 60.1577 14.4502 60.4202C14.4394 60.6828 14.4806 60.945 14.5712 61.1917C14.6618 61.4384 14.8002 61.6648 14.9784 61.858C15.1566 62.0511 15.3711 62.2073 15.6097 62.3175C15.8483 62.4277 16.1063 62.4899 16.3689 62.5003C16.6315 62.5108 16.8936 62.4694 17.1402 62.3785C17.3868 62.2876 17.6131 62.149 17.8061 61.9706C17.9991 61.7922 18.155 61.5775 18.265 61.3388L29.975 36.0075C30.0611 35.82 30.2036 35.664 30.3825 35.5613L32.7837 34.1763C32.8132 34.1594 32.8459 34.1488 32.8796 34.1449C32.9134 34.1411 32.9475 34.1442 32.9801 34.154C33.0126 34.1639 33.0428 34.1802 33.0688 34.2021C33.0947 34.224 33.116 34.2509 33.1312 34.2813L44.7825 57.4063C44.9007 57.6408 45.0639 57.8498 45.2629 58.0213C45.4618 58.1928 45.6926 58.3234 45.9421 58.4057C46.1915 58.488 46.4547 58.5204 46.7167 58.501C46.9786 58.4815 47.2342 58.4107 47.4687 58.2925C47.7033 58.1743 47.9123 58.0111 48.0838 57.8121C48.2553 57.6132 48.3859 57.3824 48.4682 57.1329C48.5505 56.8835 48.5829 56.6203 48.5634 56.3583C48.544 56.0964 48.4732 55.8408 48.355 55.6063V55.6ZM61.7762 14.9675L56.0112 5.00003C55.3459 3.85445 54.2539 3.01903 52.9741 2.67655C51.6944 2.33407 50.3311 2.5124 49.1825 3.17253L37.515 9.89503C36.9448 10.2214 36.4451 10.6577 36.0449 11.1787C35.6447 11.6997 35.352 12.295 35.1837 12.93C35.018 13.4654 34.964 14.0291 35.025 14.5863C35.2425 16.1638 36.65 18.3863 38.3262 21.3225C40.0237 24.2888 41.94 27.6325 42.9425 28.3563C43.7899 28.9553 44.8022 29.2772 45.84 29.2775C46.7142 29.2778 47.5731 29.0476 48.33 28.61L60 21.8838C60.5805 21.5512 61.0878 21.1047 61.4914 20.5711C61.895 20.0375 62.1866 19.4279 62.3487 18.7788C62.661 17.4823 62.4557 16.1151 61.7762 14.9675Z" fill="#004382"/>
</svg>
